<?xml version="1.0" encoding="UTF-8"?>
<svg id="Layer_1" data-name="Layer 1" xmlns="http://www.w3.org/2000/svg" viewBox="0 0 206 277.15">
  <defs>
    <style>
      .cls-1, .cls-2, .cls-3, .cls-4 {
        fill: none;
        stroke: #000;
        stroke-linecap: round;
        stroke-linejoin: round;
      }

      .cls-2 {
        stroke-width: 5px;
      }

      .cls-3 {
        stroke-width: 10px;
      }

      .cls-4 {
        stroke-width: 2px;
      }
    </style>
  </defs>
  <path class="cls-2" d="m66,106.65s-18-12-37-3"/>
  <path class="cls-2" d="m154.24,103.54s-19.24-9.89-37.1,1.19"/>
  <g>
    <path class="cls-4" d="m81.41,32.22s-50.2,27.39-40.12,48.24c0,0,7.61,14.61-20.81,25.13,0,0-.42,8.22-7.44,9.05,0,0-22.67-20.17-5.82-49.53,0,0,4.37-30.73,28.03-30.07,0,0,24.93-23.99,40.14-21.5,15.21,2.48,6.01,18.68,6.01,18.68Z"/>
    <path class="cls-4" d="m18.46,39.37s11.15-28.78,45.97-26.72"/>
  </g>
  <g>
    <path class="cls-4" d="m90.03,11.64s-9.41,15.69,2.09,20.92,24.05-2.09,31.37,16.73c7.32,18.82,19.87,21.96,18.82,32.42-1.05,10.46,16.73,17.78,27.19,18.82s23.01,14.64,27.19,7.32c4.18-7.32,19.87-40.79-7.32-55.43,0,0-11.5-30.33-37.65-33.46,0,0-21.96-14.64-34.51-8.37,0,0-16.73-6.27-27.19,1.05Z"/>
    <path class="cls-4" d="m104.67,7.46s27.19-20.92,55.43,12.55"/>
  </g>
  <path class="cls-1" d="m17.56,137.2c1.92-8.78,8.61-15.53,16.71-18.77,8.93-3.57,21.87-3.86,30.45.78,7.37,3.99,12.05,12.29,12.87,20.59.81,8.27-1.58,18.43-7.33,24.57-6.15,6.55-15.13,10.01-24.02,9.44-16.7-1.08-32.43-19.43-28.68-36.6Z"/>
  <path class="cls-1" d="m76.13,134.26c8.09-2.43,16.79-3.4,24.76-.37.2.07.35-.06.41-.26.19-.7.3-1.21.53-1.76.98-2.28,2.31-4.46,3.66-6.53.62-.95,1.29-1.86,2.02-2.73s1.66-1.68,2.56-2.41c1.07-.87,2.21-1.64,3.39-2.35s2.41-1.34,3.68-1.88c9.07-3.94,20.82-4.17,29.93-.28,9.96,4.26,16.1,13.62,15.42,24.46,0,0-1,23-21,30,0,0-21,9-35-12,0,0-7.2-10.51-5.2-24.51"/>
  <path class="cls-1" d="m162.5,132.15s6,1,8-1,1,3,1,3c0,0-4,3-9,1"/>
  <path class="cls-1" d="m172.5,131.15s3-2,3-5"/>
  <path class="cls-1" d="m17.5,137.15s-5,1-7-2c0,0-1,1,0,3,0,0,2,3,6,2"/>
  <path class="cls-1" d="m10.5,135.15c0-2,7-13,8-13"/>
  <path class="cls-4" d="m179,120.05s13-17.78,15,10.67-13,30.22-14,28.45"/>
  <path class="cls-4" d="m17.5,160.15s-6,52,39,70c0,0,28,4,3,43"/>
  <path class="cls-4" d="m171.5,165.15s-12,41-32,64c0,0-11,28,3,47"/>
  <path class="cls-4" d="m75.5,207.15s38,10,54-14"/>
  <path class="cls-4" d="m95.5,142.15s-14,38-8,43"/>
  <path class="cls-3" d="m125,137.65s-2,1-1,3"/>
  <path class="cls-3" d="m56,137.65s-2,1-1,3"/>
</svg>