<?xml version="1.0" encoding="UTF-8"?>
<svg id="_레이어_1" data-name="레이어 1" xmlns="http://www.w3.org/2000/svg" viewBox="0 0 85.04 85.1">
  <path d="m19.85,7.64c2.86-.23,4.92.92,7.11,1.53,2.3.64,3.04.33,3.93-1.87C32.94,2.16,35.85.13,41.33.03c1.94-.04,3.91-.14,5.79.35,3.36.88,5.57,3.08,6.81,6.33,1.15,3.01,1.7,3.26,4.73,2.29,2.23-.71,4.4-1.69,6.83-1.4.69.08,1.4.16,2.06.37,5.28,1.66,9.9,7.95,9.7,13.13-.06,1.45-.71,2.71-1.15,4.03-.77,2.28-.44,3.33,1.57,4.6.75.47,1.52.88,2.27,1.34,3.31,2.05,5.03,5,5.06,8.91,0,1.06-.04,2.12,0,3.18.26,5.45-2.22,9.04-7.27,11.01-2.71,1.05-2.74,1.26-1.85,4.04.5,1.56,1.05,3.09,1.41,4.7.64,2.92-.12,5.46-1.89,7.75-1.41,1.82-3.06,3.44-4.88,4.83-2.64,2.02-5.62,2.52-8.82,1.5-1.17-.38-2.32-.8-3.49-1.18-2.38-.77-3.11-.45-4.02,1.93-1.39,3.65-3.71,6.48-7.7,6.95-4.63.55-9.46,1.16-13.2-2.87-1.16-1.24-1.79-2.74-2.44-4.25-.95-2.19-1.67-2.51-3.97-1.78-1.56.5-3.12,1.01-4.71,1.43-2.68.7-5.14.07-7.33-1.51-2.06-1.49-3.83-3.3-5.37-5.32-1.9-2.5-2.35-5.32-1.51-8.32.47-1.69.97-3.38,1.58-5.03.46-1.22-.04-1.89-1.03-2.43-.05-.03-.11-.03-.17-.05C-.14,51.53-.24,46.73.09,39.32c.17-3.76,2-6.55,5.28-8.4.62-.34,1.22-.72,1.82-1.08,2.23-1.32,2.63-2.43,1.76-4.81-2.66-7.29,1.23-14.88,8.77-17.18.88-.27,1.74-.17,2.12-.22Zm44.88,63.27c.62.05,1.17-.16,1.68-.47,4.11-2.44,5.04-4.96,3.51-9.5-.19-.56-.36-1.12-.54-1.67-1.57-4.85.32-8.89,5.06-10.82q3.93-1.59,3.95-5.78c0-.29-.04-.6.01-.88.51-3-.78-4.91-3.48-6.14-4.64-2.11-7.5-7.7-4.72-13.37.99-2.02.68-3.72-1.03-5.19-.45-.38-.87-.8-1.25-1.24-1.47-1.71-3.14-2.19-5.33-1.29-1.66.68-3.38,1.37-5.22,1.51-4.19.31-7.4-1.88-9.2-6.22-.47-1.13-.74-2.49-2.07-2.9-2.23-.69-4.54-.61-6.78-.11-1.75.39-2.05,2.15-2.61,3.52-1.1,2.68-2.96,4.46-5.71,5.36-2.37.77-4.71.47-6.84-.61-3.6-1.83-6.26-.76-8.48,2.25-.1.14-.23.27-.35.4-1.09,1.16-1.24,2.45-.66,3.91.45,1.14.99,2.25,1.14,3.49.55,4.56-1.09,8.03-5.22,10.24-2.66,1.43-4.09,3.07-4.09,6.42,0,3.68,1.02,5.75,4.66,6.89,3.54,1.1,5.32,4.49,5.05,8.2-.17,2.38-1.3,4.49-1.9,6.75-.35,1.3-.1,2.27.7,3.24,3.76,4.5,4.24,4.78,9.72,2.74,5.6-2.08,10.73.73,12.28,5.74.65,2.1,1.97,3.1,4.15,3.03.88-.03,1.77-.03,2.65,0,2.24.1,3.48-.91,4.3-3.05,2.23-5.79,6.48-7.61,12.42-5.64,1.38.46,2.73,1.06,4.21,1.18Z"/>
  <path d="m42.49,58.82c-9.02,0-16.38-7.4-16.32-16.41.05-8.9,7.39-16.22,16.32-16.29,9.07-.07,16.4,7.42,16.39,16.73-.01,8.68-7.5,15.98-16.39,15.97Zm9.74-16.17c.02-5.65-4.12-9.91-9.65-9.95-5.45-.04-9.84,4.34-9.84,9.83,0,5.35,4.36,9.73,9.71,9.77,5.41.03,9.76-4.26,9.78-9.65Z"/>
</svg>