<?xml version="1.0" encoding="UTF-8"?>
<svg id="_레이어_1" data-name="레이어 1" xmlns="http://www.w3.org/2000/svg" viewBox="0 0 137.16 85.04">
  <defs>
    <style>
      .cls-1 {
        fill: #222;
      }

      .cls-2 {
        fill: #232323;
      }

      .cls-3 {
        fill: #3b3b3b;
      }
    </style>
  </defs>
  <path class="cls-1" d="m80.06,15.86h57.09c-.08,1.42-.11,2.78-.24,4.14-.22,2.21-.53,4.42-.76,6.64-.37,3.67-.72,7.35-1.05,11.03-.21,2.32-.32,4.64-.54,6.95-.31,3.33-.7,6.65-1.03,9.98-.2,2.05-.35,4.11-.54,6.17-.34,3.63-.69,7.26-1.04,10.9,0,.04,0,.09,0,.13-.11.72,0,1.63-.4,2.11-.39.47-1.3.52-1.99.7-6.82,1.85-13.64,3.74-20.49,5.46-.95.24-2.13-.29-3.17-.57-4.36-1.14-8.7-2.31-13.06-3.47-2.32-.62-4.64-1.21-6.95-1.86-.25-.07-.56-.44-.58-.69-.21-2.22-.33-4.46-.55-6.68-.22-2.25-.53-4.5-.77-6.75-.12-1.15-.19-2.32-.28-3.47-.34-4.28-.68-8.56-1.04-12.84-.23-2.73-.48-5.46-.76-8.19-.43-4.18-.92-8.34-1.32-12.52-.23-2.35-.35-4.7-.52-7.16Zm28.29,18.83c0,.17.02.34.03.5-5.42,2.27-10.83,4.55-16.34,6.86.11,1.8.27,3.57.31,5.33.02,1.1.4,1.46,1.54,1.46,7.54.02,15.09.12,22.63.2.25,0,.49.06.65.08-.17,3.04-.33,6.01-.5,8.96-2.15.65-4.28,1.35-6.45,1.93-.81.22-1.72.35-2.52.2-2.02-.39-4.01-.98-6.01-1.47-.59-.15-.92-.38-.96-1.1-.11-1.64-.36-3.27-.55-4.83h-7.16c.31,3.54.6,6.97.96,10.4.03.28.5.65.83.75,3.33,1.01,6.67,2,10.03,2.94,1.42.4,3.01,1.21,4.31.91,4.53-1.06,8.96-2.5,13.42-3.84.3-.09.69-.52.72-.82.31-3.03.57-6.07.81-9.11.2-2.53.33-5.07.54-7.6.11-1.4.31-2.79.47-4.19-.07-.07-.15-.14-.22-.21h-15.58c1.14-.74,2.29-1.22,3.45-1.71,4.04-1.72,8.09-3.43,12.12-5.19.34-.15.72-.59.77-.94.31-2.14.53-4.29.78-6.49h-35.94c.31,2.35.61,4.62.92,6.99h16.96Z"/>
  <path class="cls-1" d="m0,15.79h56.7c-.09,1.45-.14,2.89-.28,4.33-.12,1.28-.38,2.54-.49,3.82-.29,3.44-.51,6.88-.8,10.31-.33,3.99-.69,7.97-1.05,11.95-.25,2.82-.53,5.64-.78,8.47-.36,3.98-.7,7.96-1.05,11.95-.17,1.88-.36,3.76-.52,5.65-.08.98-.45,1.63-1.48,1.91-3.16.86-6.32,1.35-9.63,1.3-9.52-.13-19.05.05-28.57-.12-2.19-.04-4.37-.92-6.54-1.47-.2-.05-.4-.45-.43-.71-.21-1.79-.37-3.58-.54-5.38-.35-3.76-.71-7.53-1.04-11.29-.21-2.4-.33-4.81-.54-7.22-.22-2.47-.52-4.94-.77-7.41-.11-1.15-.17-2.31-.28-3.47-.34-3.76-.71-7.52-1.04-11.28-.21-2.44-.35-4.89-.54-7.34-.1-1.32-.22-2.63-.34-4.01Zm19.22,26.12c-.07-.07-.15-.14-.22-.21-.19-2.26-.39-4.52-.58-6.79.02-.08.02-.15.02-.23h27.07c.16-2.24.31-4.41.47-6.58l-.02-.5c-11.71,0-23.41,0-35.12,0-.07.07-.15.14-.22.21.08,1.42.12,2.84.25,4.25.32,3.43.69,6.85,1.02,10.27.21,2.21.37,4.43.57,6.74h24.63c-.3,3.19-.59,6.26-.88,9.3-1.32.34-2.57.72-3.85.99-1.66.35-3.37,1-4.99.83-2.11-.22-4.13-1.18-6.23-1.68-.76-.18-.84-.53-.87-1.16-.08-1.54-.22-3.08-.34-4.66h-7.19c.33,3.39.71,6.7.95,10.03.06.85.33,1.2,1.11,1.41,3.59.97,7.17,2,10.76,2.98,1,.27,2.12.86,3.03.64,4.52-1.1,8.99-2.4,13.46-3.68.32-.09.72-.55.76-.87.39-3.36.75-6.73,1.06-10.1.22-2.4.34-4.81.54-7.21.11-1.27.3-2.54.47-3.98h-25.65Z"/>
  <path class="cls-1" d="m74.09,72.56c.24,2.53-.41,5.16-1.96,7.59-.5.78-.95,1.63-1.24,2.5-.66,1.94-1.93,2.62-3.92,2.31-1.1-.17-1.63-.8-1.22-1.84.64-1.64,1.33-3.25,1.96-4.89.31-.8.11-1.34-.9-1.43-2.55-.21-3.8-1.6-3.8-4.16,0-1.22,0-2.44,0-3.66.01-1.96,1.22-3.17,3.2-3.17,1.4,0,2.8.06,4.19-.01,2.5-.14,3.51,1.72,3.68,3.55.09.95.02,1.92.02,3.21Z"/>
  <path class="cls-2" d="m37.31,5.85c-.75,1.1-1.5,2.2-2.31,3.39-.81-1.19-1.59-2.32-2.36-3.46-.09.02-.17.04-.26.06v4.88h-3.33V.04c1.08,0,2.16-.06,3.23.03.33.03.72.39.93.7.61.92,1.15,1.89,1.82,3,.56-.94,1.09-1.73,1.51-2.57.46-.93,1.12-1.31,2.17-1.19.77.09,1.56.02,2.42.02v10.67h-3.47v-4.74c-.11-.04-.22-.08-.33-.12Z"/>
  <path class="cls-1" d="m5.38,10.52V.3c.07-.07.14-.15.21-.22h3.1v3.42h3.56V.12h3.52v10.58h-3.56v-3.24h-3.42v3.28h-3.2c-.07-.07-.14-.15-.21-.22Z"/>
  <path class="cls-1" d="m104.43.1h8.39c.07.07.15.14.22.21v3.59h-3.32c.85.85,1.41,1.54,2.09,2.07,1.05.82,1.5,1.81,1.29,3.13-.07.47-.04.95-.05,1.42-.07.07-.15.14-.22.21h-8.39c-.07-.07-.15-.14-.22-.21v-3.13h3.45c-.88-.9-1.43-1.61-2.12-2.15-1.14-.88-1.6-1.96-1.38-3.38.08-.51.04-1.04.05-1.56.07-.07.15-.14.22-.21Z"/>
  <path class="cls-1" d="m117.01.1h8.38c.07.07.15.14.22.21v3.61h-3.59c.87.79,1.44,1.41,2.1,1.9,1.07.8,1.8,1.7,1.54,3.14-.09.51-.04,1.04-.06,1.56-.07.07-.15.14-.22.21-2.79,0-5.59,0-8.38,0-.07-.07-.15-.14-.22-.21v-3.13h3.44c-.87-.9-1.43-1.61-2.11-2.15-1.13-.89-1.61-1.96-1.38-3.38.08-.51.04-1.04.05-1.56.07-.07.15-.14.22-.21Z"/>
  <path class="cls-1" d="m92.11.1c2.71,0,5.42,0,8.12,0,.07.07.15.14.22.21v3.62h-4.86v3.41h4.86v3.19c-.07.07-.15.14-.22.21-2.71,0-5.42,0-8.12,0l-.27-.21c0-3.41,0-6.81,0-10.22.09-.07.18-.14.27-.21Z"/>
  <path class="cls-1" d="m24.25,3.97v6.73h-3.59V3.77h-3.19V.12h9.78v3.63h-2.79c-.07.07-.14.15-.21.22Z"/>
  <path class="cls-1" d="m43.03.11h3.52v7.2h4.82v3.39h-8.34V.11Z"/>
  <path class="cls-3" d="m100.23,10.73c.07-.07.15-.14.22-.21-.07.07-.15.14-.22.21Z"/>
  <path class="cls-3" d="m91.83,10.52l.27.21-.27-.21Z"/>
  <path class="cls-3" d="m5.38,10.52c.07.07.14.15.21.22-.07-.07-.14-.15-.21-.22Z"/>
  <path class="cls-3" d="m104.21,10.52c.07.07.15.14.22.21-.07-.07-.15-.14-.22-.21Z"/>
  <path class="cls-3" d="m112.81,10.73c.07-.07.15-.14.22-.21-.07.07-.15.14-.22.21Z"/>
  <path class="cls-3" d="m116.79,10.52c.07.07.15.14.22.21-.07-.07-.15-.14-.22-.21Z"/>
  <path class="cls-3" d="m125.62.31c-.07-.07-.15-.14-.22-.21.07.07.15.14.22.21Z"/>
  <path class="cls-3" d="m117.01.1c-.07.07-.15.14-.22.21.07-.07.15-.14.22-.21Z"/>
  <path class="cls-3" d="m113.04.31c-.07-.07-.15-.14-.22-.21.07.07.15.14.22.21Z"/>
  <path class="cls-3" d="m104.43.1c-.07.07-.15.14-.22.21.07-.07.15-.14.22-.21Z"/>
  <path class="cls-3" d="m100.45.31c-.07-.07-.15-.14-.22-.21.07.07.15.14.22.21Z"/>
  <path class="cls-3" d="m92.11.1c-.09.07-.18.14-.27.21.09-.07.18-.14.27-.21Z"/>
  <path class="cls-3" d="m5.58.08c-.07.07-.14.15-.21.22.07-.07.14-.15.21-.22Z"/>
  <path class="cls-3" d="m108.35,34.69h1.18c-.57.25-.86.38-1.15.5,0-.17-.02-.34-.03-.5Z"/>
  <path class="cls-3" d="m18.42,34.92c-.06-.07-.12-.13-.18-.2.07,0,.13-.02.2-.03,0,.08,0,.15-.02.23Z"/>
  <path class="cls-3" d="m19.22,41.91c-.07-.07-.15-.14-.22-.21.07.07.15.14.22.21Z"/>
</svg>