<?xml version="1.0" encoding="UTF-8"?>
<svg id="_레이어_1" data-name="레이어 1" xmlns="http://www.w3.org/2000/svg" viewBox="0 0 85.04 95.9">
  <defs>
    <style>
      .cls-1 {
        fill: #222;
      }
    </style>
  </defs>
  <path class="cls-1" d="m.2,70.39c-.05-1.09-.14-2.18-.14-3.26C.06,54.27.15,41.4,0,28.53c-.04-3.75,1.42-6.16,4.58-7.94,8.19-4.61,16.33-9.32,24.48-14,3.26-1.87,6.5-3.79,9.77-5.64,2.73-1.54,5.45-1.06,8.01.39,5.53,3.14,11,6.4,16.51,9.59,6.01,3.47,12.05,6.89,18.06,10.37,2.52,1.46,3.54,3.92,3.55,6.62.08,13.36.11,26.73-.01,40.09-.03,3.25-1.86,5.59-4.79,7.24-7.69,4.33-15.27,8.84-22.92,13.25-3.84,2.22-7.7,4.4-11.59,6.53-2.21,1.21-4.6,1.14-6.72-.06-4.12-2.31-8.12-4.84-12.18-7.26-.36-.22-.83-.27-1.25-.4l.64-.47c1.79-.89,3.55-1.84,5.39-2.62.49-.21,1.3-.09,1.79.19,2.62,1.44,5.24,2.88,7.73,4.52,1.03.68,1.75.56,2.66.04,2.72-1.56,5.45-3.08,8.17-4.65,4.3-2.48,8.58-5,12.88-7.48,4.13-2.38,8.27-4.77,12.44-7.08,1.32-.74,1.55-1.82,1.55-3.17-.02-11.72-.01-23.45-.01-35.17,0-4.43.01-4.45-3.71-6.6-10.51-6.07-21.03-12.11-31.54-18.17-.97-.56-1.77-.31-2.69.24-4.88,2.92-9.8,5.78-14.72,8.64-6.38,3.7-12.78,7.36-19.15,11.09-.32.19-.55.8-.55,1.22-.03,13.31-.03,26.63.02,39.94,0,.53.47,1.27.94,1.56,2.89,1.78,5.81,3.54,8.79,5.16,2.97,1.62,5.68,1.85,7.65-.84.69-.93,1.07-2.31,1.08-3.49.07-12.77.07-25.53.02-38.3,0-1.36.32-1.93,1.73-1.75.88.11,1.79.02,2.68.02,2.06,0,2.13.07,2.13,2.07,0,12.27-.01,24.54.01,36.81,0,2.81-.09,5.59-1.48,8.11-1.68,3.06-4.3,4.53-7.79,4.9-4.96.53-8.91-1.71-12.87-4.13-1.72-1.05-3.44-2.11-5.22-3.06-1.77-.94-3.05-2.24-3.64-4.18-.08-.1-.16-.19-.24-.29Z"/>
  <path class="cls-1" d="m39.19,53.7c.2,0,.4,0,.6,0,2.27,0,2.31-.01,2.84,2.14.6,2.45,2.1,4.02,4.48,4.71,4.66,1.36,9.35,1.28,14.01,0,2.09-.58,3.99-2.64,3.75-4.96-.12-1.15-.52-2.11-1.54-2.45-2.17-.72-4.38-1.4-6.63-1.79-4.47-.78-9.07-.72-13.39-2.41-3.43-1.34-5.72-3.48-6.23-7.39-.87-6.63,3.14-10.46,8.65-11.95,5.61-1.52,11.27-1.29,16.79.56,4.54,1.52,7.15,4.72,7.68,9.53.25,2.3.19,2.37-2.22,2.38-.15,0-.3,0-.45,0-3.09,0-3.02-.03-4.24-2.96-.96-2.32-2.94-3.52-5.33-3.86-3.65-.52-7.32-.67-10.95.29-2.3.61-3.9,3.43-2.93,5.54.7,1.52,2.37,1.88,3.85,2.16,5.13.95,10.31,1.7,15.42,2.77,1.88.39,3.9,1.13,5.36,2.31,3.79,3.08,4.18,9.83,1.09,13.68-2.48,3.09-5.81,4.59-9.62,5.08-2.47.32-4.98.71-7.45.57-4.13-.23-8.3-.61-11.85-3.16-2.81-2.01-4.79-4.51-4.97-8.13-.01-.28-.21-.54-.27-.82-.24-1.12.29-1.79,1.46-1.83.69-.02,1.39,0,2.09,0Z"/>
</svg>