<?xml version="1.0" encoding="UTF-8"?>
<svg id="_레이어_1" data-name="레이어 1" xmlns="http://www.w3.org/2000/svg" viewBox="0 0 85.04 83.64">
  <defs>
    <style>
      .cls-1 {
        fill: #333;
      }
    </style>
  </defs>
  <path class="cls-1" d="m.06,41.63C.06,30.53.17,19.43,0,8.34-.05,4.94,3,1.07,6.58.35,7.58.15,8.62.02,9.64.02,31.59,0,53.54,0,75.5,0c5.86,0,9.54,3.6,9.54,9.48,0,21.57,0,43.15,0,64.72,0,3.45-1.27,6.31-4.27,8.16-1.39.86-2.94,1.49-4.68,1.2-.37-.06-.76-.01-1.14-.01-21.95,0-43.9-.06-65.86.05-4.48.02-7.85-2.95-8.8-6.61-.24-.94-.23-1.96-.23-2.94-.01-10.81,0-21.62,0-32.43h.01Zm42.3,35.31v-.02c9.33,0,18.67.03,28-.04,1.01,0,2.09-.39,3.02-.85,3.64-1.83,4.94-5.05,4.94-8.92.02-17,.09-34.01-.04-51.01-.05-6.22-3.63-9.37-9.33-9.42-17.81-.16-35.62-.08-53.43-.02-1.83,0-3.66.4-5.22,1.58-2.47,1.86-3.48,4.31-3.48,7.37.04,14.34.01,28.67.02,43.01,0,3.57-.02,7.14.08,10.71.11,4.06,4.36,7.62,8.01,7.62,9.14-.01,18.29,0,27.43,0Z"/>
  <path class="cls-1" d="m27.75,44.07v10.81h-7.12c0-10.82,0-21.59,0-32.36q0-1.89,1.85-1.89c3,0,6-.13,8.99.03,3.63.19,7.16.94,9.63,3.97,2.11,2.59,2.72,5.6,2.26,8.91-.55,3.92-2.74,6.61-6.03,8.56-2.25,1.33-4.75,1.76-7.3,1.96-.7.06-1.4,0-2.28,0Zm.09-6.02c3.2.12,6.16-.15,7.82-3.18,1.19-2.19,1.07-4.56-.43-6.59-1.88-2.55-4.66-2.33-7.39-2.13v11.9Z"/>
  <path class="cls-1" d="m46.37,47.5c2.58,1.39,5.16,2.32,7.98,1.96.72-.09,1.8-.52,1.98-1.04.27-.8.24-2.1-.26-2.67-.77-.89-2.02-1.36-3.09-1.97-1.83-1.04-4.03-1.7-5.45-3.14-2.41-2.43-2.31-4.55-.46-7.9,1.53-2.78,4.24-3.88,7.34-4.11,2.67-.2,5.27-.02,7.71,1.17.36.18.78.68.8,1.05.09,1.61.04,3.23.04,4.93-1.69-.56-3.27-1.23-4.91-1.55-1.1-.21-2.37-.15-3.44.2-1.44.46-1.57,2.28-.24,3.05,1.23.71,2.61,1.17,3.92,1.75,2.56,1.12,5,2.33,5.83,5.37.86,3.13-.28,7.14-3.58,8.96-3.99,2.2-7.95,2.02-12.1.57-1.65-.57-2.36-1.34-2.1-3.11.16-1.07.03-2.19.03-3.52Z"/>
</svg>