<?xml version="1.0" encoding="UTF-8"?>
<svg id="_레이어_1" data-name="레이어 1" xmlns="http://www.w3.org/2000/svg" viewBox="0 0 86.43 86.43">
  <defs>
    <style>
      .cls-1 {
        stroke-width: 8px;
      }

      .cls-1, .cls-2 {
        fill: #fff;
        stroke: #000;
        stroke-linecap: round;
        stroke-linejoin: round;
      }

      .cls-2 {
        stroke-width: 7px;
      }
    </style>
  </defs>
  <path class="cls-2" d="m82.93,40.74v24.37c0,9.84-7.98,17.82-17.82,17.82H21.32c-9.84,0-17.82-7.98-17.82-17.82V21.32C3.5,11.48,11.48,3.5,21.32,3.5h43.79c9.84,0,17.82,7.98,17.82,17.82v3.98"/>
  <g>
    <path class="cls-1" d="m31.73,28.3c.47-4.1,1.06-6.2,4.06-8.16,3.37-2.2,6.82-2.7,10.78-1.32,6.12,2.14,7.66,5.31,8.06,10.28.19,2.32.07,4.72-1,6.79-1.77,3.43-5.42,4.87-9.13,4.96l-.08,17.33"/>
    <circle class="cls-1" cx="44.64" cy="67.34" r="1.04"/>
  </g>
</svg>