<?xml version="1.0" encoding="UTF-8"?>
<svg id="_레이어_1" data-name="레이어 1" xmlns="http://www.w3.org/2000/svg" viewBox="0 0 198.33 182.71">
  <path d="m198.26,78.47c.49,16.12-1.86,32.94-5.58,48.46-4.31,18-11.45,37.74-27.72,48.19-15.38,9.87-33.5,9.53-49.81,2.3-4.47-1.98-9.03-3.82-13.27-6.22-6.61-3.74-13.16-7.63-19.39-11.96-6.53-4.54-12.78-9.51-18.89-14.61-5.63-4.69-11.01-9.7-16.34-14.73-6.9-6.5-13.28-13.49-19.34-20.8-6.69-8.08-12.85-16.51-18.11-25.6-4.08-7.05-7.34-14.45-9.1-22.41C-.02,57.82-.18,54.46.19,51.01c.55-5.13,1.9-9.92,4.41-14.36,1.24-2.2,2.71-4.31,4.31-6.25,5.17-6.27,11.83-10.66,19.04-14.17C62.73-.75,114.42-6.54,150.56,9.28c11.45,5.01,21.42,12.08,29.76,21.36,10.76,11.95,16.61,26.98,17.7,42.96.11,1.61.19,3.24.24,4.87Z"/>
</svg>