<?xml version="1.0" encoding="UTF-8"?>
<svg id="_레이어_1" data-name="레이어 1" xmlns="http://www.w3.org/2000/svg" viewBox="0 0 198.43 76.42">
  <path d="m175.03,75.23c-4.13,0-8.75-.03-13.37.01-13.03.11-26.04.84-39.07.93-11.32.08-22.65.12-33.97.18-1.94.01-3.88.08-5.82.05-3.51-.05-7.03-.12-10.54-.24-3.62-.12-7.23-.26-10.84-.48-3.01-.18-6.01-.5-9.01-.72-2.38-.18-4.76-.24-7.13-.47-2.55-.25-5.08-.62-7.62-.95-2.99-.39-5.98-.73-8.95-1.21-2.4-.39-4.78-.91-7.16-1.44-5.19-1.16-10.29-2.63-14.98-5.22-2.62-1.45-4.88-3.32-6.04-6.21-.76-1.92-.56-3.99-.22-5.86.53-2.92,1.47-5.8,2.52-8.6,1.59-4.25,4.02-8.08,6.68-11.75,3.31-4.56,7.05-8.76,11.18-12.59,5.43-5.03,11.26-9.54,17.72-13.2,5.29-3,10.77-5.53,16.77-6.73,4.53-.91,9.13-1.3,13.42.83,3.36,1.67,6.58,3.67,9.77,5.67,4.23,2.66,8.29,5.58,12.55,8.17,6.06,3.68,12.51,6.51,19.41,8.22,2.85.71,5.68,1.54,8.57,2.07,3.43.63,6.9,1.1,10.36,1.46,4.88.5,9.78.87,14.67,1.22,3.22.23,6.45.38,9.68.45,5.85.13,11.71.11,17.57.29,6.87.21,13.21,2.14,18.49,6.67,4.72,4.05,7.7,9.15,8.52,15.45.69,5.32-.07,10.28-3.15,14.74-3.25,4.72-7.9,7.35-13.44,8.44-1.99.39-4.03.51-6.56.81Z"/>
</svg>