<?xml version="1.0" encoding="UTF-8"?>
<svg id="_레이어_1" data-name="레이어 1" xmlns="http://www.w3.org/2000/svg" viewBox="0 0 85.04 85.25">
  <defs>
    <style>
      .cls-1 {
        fill: #1f1f1f;
      }
    </style>
  </defs>
  <path d="m0,42.58C0,31.28,0,19.99,0,8.69,0,4.81,3.1,1.46,6.67.56,8.2.17,9.82.04,11.4.04,32.41,0,53.43-.03,74.44.04c5.26.02,8.64,2.19,10.12,6.87.31.98.45,2.05.45,3.08.02,21.76.04,43.51,0,65.27,0,5.15-3.7,9.17-8.55,9.97-.53.09-1.09-.1-1.64-.1-21.48,0-42.96-.06-64.43.05-3.46.02-6.18-.98-8.35-3.58C.85,80.16,0,78.55,0,76.6c0-11.34,0-22.68,0-34.02Zm9.51,33.02h66.02V9.53H9.51v66.07Z"/>
  <path d="m62.65,36.85v-12.91h6.76c.02.38.06.78.06,1.17,0,10.92-.01,21.83.03,32.75,0,1.19-.28,1.74-1.54,1.58-.59-.08-1.21-.08-1.8,0-1.59.22-2.66-.24-2.96-1.96-.08-.47-.37-.9-.57-1.35-.86.81-1.64,1.77-2.61,2.44-4.1,2.8-10.12,1.49-12.52-3.14-1.22-2.35-1.93-4.78-1.96-7.45-.04-3.1.09-6.13,1.39-9.04,1.33-2.96,4.32-5.38,7.57-5.38,3.8,0,5.14.3,8.14,3.3Zm.42,9.98c-.09-.02-.18-.04-.27-.06,0-.79.07-1.58-.02-2.36-.09-.74-.32-1.48-.56-2.19-.62-1.87-2.07-3-3.85-3.08-2.69-.12-4.3.66-5.07,2.71-1.23,3.24-1.23,6.55.08,9.78.72,1.77,2.13,2.85,4.12,2.77,1.96-.08,3.87-.53,4.55-2.7.49-1.58.7-3.24,1.04-4.87Z"/>
  <path d="m17.49,58.55c3.5-5.41,7-10.82,10.49-16.22-3.39-5.36-6.78-10.73-10.33-16.34,2.65,0,5.03-.03,7.41.03.28,0,.63.44.82.75,2.09,3.46,4.15,6.94,6.22,10.4.12.19.31.34.61.65.88-1.47,1.74-2.86,2.56-4.29,1.23-2.15,2.43-4.31,3.66-6.46.39-.68.85-1.11,1.81-1.05,2.03.13,4.07.04,6.35.04-1.1,1.79-2.11,3.44-3.14,5.08-2.14,3.39-4.29,6.77-6.44,10.15-.59.92-.55,1.65.14,2.64,3.37,4.81,6.62,9.7,9.9,14.56.12.18.16.4.24.61-.02.08-.03.16-.02.24-2.31.01-4.62.06-6.93.01-.39,0-.92-.31-1.13-.64-2.34-3.7-4.62-7.44-6.92-11.17-.14-.22-.28-.45-.56-.9-.8,1.3-1.53,2.44-2.23,3.6-1.73,2.87-3.43,5.75-5.18,8.6-.16.27-.61.5-.93.51-2.13.03-4.25,0-6.38-.02,0-.27-.02-.54-.03-.81Z"/>
  <path class="cls-1" d="m17.49,58.55c0,.27.02.54.03.81-.18-.05-.36-.09-.55-.14.17-.22.35-.45.52-.67Z"/>
  <path class="cls-1" d="m47.78,59.36c0-.08,0-.16.02-.24.06.07.13.15.19.22-.07,0-.14.02-.21.03Z"/>
</svg>