<?xml version="1.0" encoding="UTF-8"?>
<svg id="_레이어_1" data-name="레이어 1" xmlns="http://www.w3.org/2000/svg" viewBox="0 0 85.04 83.22">
  <path d="m84.65,6.84c.11.83.31,1.66.31,2.49.02,21.29.01,42.59.02,63.88,0,.57.04,1.13.07,1.7-.13.57-.26,1.14-.39,1.71-.4.93-.8,1.87-1.21,2.8-1.52,2-3.56,3.19-5.96,3.8-.57-.02-1.14-.07-1.7-.07-22.63,0-45.25.01-67.88,0-.45,0-.91-.15-1.36-.23-.47-.12-.94-.24-1.41-.37-2.18-1.55-4.28-3.16-4.87-5.99-.1-.48-.17-.99-.17-1.48C.08,53.03.16,30.97,0,8.91-.03,4.97,3.01,1.26,6.21.48,7.24.24,8.31.02,9.36.02,31.43,0,53.5,0,75.57,0c.73,0,1.47.15,2.2.23l1.42.28c1.13.7,2.27,1.39,3.4,2.09.37.48.75.95,1.12,1.43,0,0-.01-.01-.01-.01.32.94.64,1.87.96,2.81Zm-42.47,69.78v-.02c9.02,0,18.04-.08,27.05.03,5.06.06,9.37-3.68,9.38-9.39.01-17.08.06-34.17-.02-51.25-.03-5.73-3.6-9.39-9.46-9.42-16.33-.07-32.65-.03-48.98-.01-2.16,0-4.34.04-6.48.3-3.64.45-7.06,3.42-7.07,7.68-.05,17.6,0,35.21-.07,52.81,0,1.84.28,3.49,1.21,5.07,1.51,2.55,3.78,4.11,6.68,4.15,9.25.12,18.51.05,27.76.05Z"/>
  <path d="m30.19,21.14c2.66-.01,5.31-.06,7.97,0,.39,0,1.01.46,1.12.83,1.66,5.32,3.25,10.66,4.87,16,1.42,4.68,2.88,9.36,4.31,14.04.62,2.03,1.22,4.06,1.85,6.19h-7.78c-.77-2.76-1.54-5.63-2.4-8.47-.12-.38-.68-.88-1.04-.89-3.08-.07-6.16-.04-9.34-.04-.89,2.9-1.76,5.78-2.7,8.65-.12.37-.59.89-.92.9-1.94.09-3.88.04-6.04.04.48-1.87.87-3.62,1.37-5.33,1.46-4.98,2.97-9.93,4.44-14.91,1.25-4.24,2.53-8.48,3.67-12.75.34-1.29.27-2.69.38-4.04.08-.08.16-.15.24-.23Zm8.22,21.07c-1.19-4.63-2.36-9.19-3.53-13.76-.13,0-.26.02-.39.02-1.14,4.53-2.28,9.06-3.46,13.73h7.38Z"/>
  <path d="m53.85,30.05h7.28v28.17h-7.28v-28.17Z"/>
  <path d="m57.53,19.08c2.31,0,3.72,1.42,3.72,3.75,0,2.11-1.81,3.95-3.87,3.94-2-.01-3.81-1.89-3.82-3.95-.01-2.38,1.44-3.75,3.98-3.74Z"/>
  <path d="m30.19,21.14c-.08.08-.16.15-.24.23.08-.08.16-.15.24-.23Z"/>
</svg>