<?xml version="1.0" encoding="UTF-8"?>
<svg id="Layer_1" data-name="Layer 1" xmlns="http://www.w3.org/2000/svg" viewBox="0 0 510 684.38">
  <defs>
    <style>
      .cls-1 {
        stroke-width: 20px;
      }

      .cls-1, .cls-2, .cls-3 {
        fill: none;
        stroke: #fff;
        stroke-linecap: round;
        stroke-linejoin: round;
      }

      .cls-2 {
        stroke-width: 10px;
      }

      .cls-3 {
        stroke-width: 3px;
      }
    </style>
  </defs>
  <path class="cls-2" d="m164.31,263.94s-44.12-29.41-90.69-7.35"/>
  <path class="cls-2" d="m380.59,256.32s-47.15-24.25-90.94,2.92"/>
  <g>
    <path class="cls-2" d="m202.09,81.53s-123.04,67.14-98.33,118.25c0,0,18.66,35.81-51,61.59,0,0-1.03,20.14-18.22,22.18,0,0-55.55-49.45-14.27-121.39,0,0,10.7-75.32,68.71-73.7,0,0,61.11-58.79,98.38-52.71,37.28,6.08,14.74,45.78,14.74,45.78Z"/>
    <path class="cls-2" d="m47.78,99.04s27.32-70.53,112.68-65.49"/>
  </g>
  <g>
    <path class="cls-2" d="m223.21,31.07s-23.07,38.45,5.13,51.26c28.19,12.82,58.95-5.13,76.9,41.01,17.94,46.14,48.7,53.83,46.14,79.46-2.56,25.63,41.01,43.57,66.64,46.14,25.63,2.56,56.39,35.88,66.64,17.94,10.25-17.94,48.7-99.96-17.94-135.85,0,0-28.19-74.33-92.27-82.02,0,0-53.83-35.88-84.58-20.51,0,0-41.01-15.38-66.64,2.56Z"/>
    <path class="cls-2" d="m259.1,20.82s66.64-51.26,135.85,30.76"/>
  </g>
  <path class="cls-3" d="m45.58,338.81c4.69-21.52,21.09-38.06,40.96-45.99,21.88-8.74,53.62-9.46,74.64,1.91,18.07,9.77,29.54,30.12,31.55,50.46,2,20.28-3.87,45.18-17.98,60.22-15.07,16.06-37.09,24.54-58.87,23.13-40.93-2.66-79.47-47.63-70.3-89.71Z"/>
  <path class="cls-3" d="m189.14,331.63c19.83-5.96,41.14-8.33,60.69-.9.48.18.86-.15,1-.65.47-1.71.72-2.98,1.3-4.32,2.4-5.59,5.67-10.92,8.98-16.01,1.51-2.32,3.17-4.56,4.96-6.68s4.06-4.12,6.28-5.92c2.62-2.12,5.42-4.03,8.31-5.76,2.9-1.73,5.92-3.27,9.02-4.62,22.22-9.65,51.04-10.23,73.36-.69,24.42,10.44,39.46,33.39,37.8,59.95,0,0-2.45,56.37-51.47,73.53,0,0-51.47,22.06-85.78-29.41,0,0-17.65-25.77-12.75-60.08"/>
  <path class="cls-3" d="m400.83,326.44s14.71,2.45,19.61-2.45,2.45,7.35,2.45,7.35c0,0-9.8,7.35-22.06,2.45"/>
  <path class="cls-3" d="m425.34,323.99s7.35-4.9,7.35-12.25"/>
  <path class="cls-3" d="m45.44,338.69s-12.25,2.45-17.16-4.9c0,0-2.45,2.45,0,7.35,0,0,4.9,7.35,14.71,4.9"/>
  <path class="cls-3" d="m28.28,333.79c0-4.9,17.16-31.86,19.61-31.86"/>
  <path class="cls-2" d="m441.27,296.78s31.86-43.58,36.76,26.15c4.9,69.72-31.86,74.08-34.31,69.72"/>
  <path class="cls-2" d="m45.44,395.06s-14.71,127.45,95.59,171.57c0,0,68.63,9.8,7.35,105.39"/>
  <path class="cls-2" d="m422.89,407.32s-29.41,100.49-78.43,156.86c0,0-26.96,68.63,7.35,115.2"/>
  <path class="cls-2" d="m187.6,510.26s93.14,24.51,132.35-34.31"/>
  <path class="cls-2" d="m223.05,353.85s-34.31,93.14-19.61,105.39"/>
  <path class="cls-1" d="m308.92,339.92s-4.9,2.45-2.45,7.35"/>
  <path class="cls-1" d="m139.8,339.92s-4.9,2.45-2.45,7.35"/>
</svg>