<?xml version="1.0" encoding="UTF-8"?>
<svg id="_레이어_1" data-name="레이어 1" xmlns="http://www.w3.org/2000/svg" viewBox="0 0 55.21 85.04">
  <defs>
    <style>
      .cls-1 {
        fill: #f24d1f;
      }

      .cls-2 {
        fill: #ff7262;
      }

      .cls-3 {
        fill: #b758c8;
      }

      .cls-4 {
        fill: #a259ff;
      }

      .cls-5 {
        fill: #0ecf82;
      }

      .cls-6 {
        fill: #1abcfe;
      }

      .cls-7 {
        fill: #5897c1;
      }
    </style>
  </defs>
  <path class="cls-1" d="m9.2,27.73C4.44,25.72,1.47,22.16.33,17.16-1.28,10.08,3.18,1.9,11.09.34c1.15-.23,2.34-.27,3.51-.28,4.35-.02,8.69,0,13.04.02,0,.07.02.14.05.21,0,1.67-.01,3.33-.01,5-.02,7.67-.03,15.34-.05,23.01-4.65.02-9.3.05-13.95.07-.36-.01-.72-.03-1.07-.04-.26,0-.52,0-.78-.01-.88-.19-1.75-.38-2.63-.58Z"/>
  <path class="cls-2" d="m27.63,28.3c.02-7.67.03-15.34.05-23.01,0-1.67,0-3.33.01-5,0-.21,11.1-.32,12.14-.29,3.75.12,7.67.9,10.55,3.31,1.21,1.01,2.19,2.28,2.96,3.65,2.06,3.72,2.47,8.34,1.01,12.34-1.47,3.99-4.81,7.28-8.86,8.58-5.69,1.83-11.72-.09-17.54.48-.09,0-.19.02-.28.03l-.03-.09Z"/>
  <path class="cls-4" d="m13.68,28.36c4.65-.02,9.3-.05,13.95-.07,0,0,.03.09.03.09,0,.07.03.12.08.17,0,3.51,0,7.02,0,10.53,0,.52-.02,1.04-.03,1.56,0,1.34,0,2.68,0,4.02.01.71.02,1.42.03,2.12,0,.52.02,1.04.03,1.57-.04,2.77-.08,5.54-.12,8.3-4.65,0-9.29,0-13.94,0-.37.04-.74.08-1.11.12-.6.01-1.19.02-1.79.03-.63-.35-1.26-.7-1.89-1.04-4.52-2.49-7.8-5.67-8.59-11-.33-2.26-.24-4.59.43-6.77,1.55-5.09,5.98-8.45,11.07-9.49.26,0,.52.01.78.02.36-.05.71-.11,1.07-.16Z"/>
  <path class="cls-5" d="m10.86,56.99c.85-.21,1.72-.33,2.59-.38,4.69-.25,9.5.06,14.21.06,0,5.15.26,10.31-.05,15.44-.36,6.1-5.03,11.63-11.52,12.72-5.33.9-9.54-1.01-12.95-5.06-4.33-5.15-4.11-13.22.27-18.29,1.93-2.23,4.59-3.8,7.45-4.49Z"/>
  <path class="cls-6" d="m27.79,44.66c-.12-.8-.18-1.6-.16-2.4.15-6.29,4.49-11.52,10.34-13.48.61-.1,1.22-.19,1.83-.29,6.41-.04,12.42,2.71,14.63,9.21,2.33,6.86-1.12,15.34-7.94,18.1-8.33,3.36-17.36-2.54-18.69-11.14Z"/>
  <path class="cls-3" d="m13.68,28.36c-.36.05-.71.11-1.07.16.01-.07.01-.14,0-.2.36.01.72.03,1.07.04Z"/>
  <path class="cls-7" d="m13.71,56.66c-.37.04-.74.08-1.11.12.37-.04.74-.08,1.11-.12Z"/>
</svg>