<?xml version="1.0" encoding="UTF-8"?>
<svg id="_레이어_1" data-name="레이어 1" xmlns="http://www.w3.org/2000/svg" viewBox="0 0 85.04 84.82">
  <path d="m44.34,84.75c-11.5,0-23.01-.16-34.51.07-5.06.1-9.11-3.4-9.72-7.56-.11-.78-.06-1.58-.06-2.37,0-21.91.07-43.82-.05-65.73C-.02,4.76,3.76.61,8.03.25c1-.08,2-.22,3-.22,21.34-.01,42.68-.08,64.03.04,6.09.03,9.54,3.67,9.86,9.63.17,3.22.13,6.46,0,9.68-.09,2.36-1.15,3.99-3.34,4.44-2.29.47-4.6-1.2-4.62-3.55-.02-3.32,0-6.64,0-9.96,0-1.79-.55-2.32-2.38-2.32-21.48,0-42.96,0-64.44,0-2,0-2.15.16-2.15,2.24,0,21.59,0,43.17,0,64.76,0,1.5.41,1.9,1.95,1.9,23.56,0,47.12,0,70.68,0,2.02,0,3.29.83,3.95,2.53.61,1.56.12,3.6-1.39,4.63-.72.49-1.77.69-2.67.69-11.69.04-23.37.03-35.06.03-.37,0-.74,0-1.11,0Z"/>
  <path d="m70.03,30.68c4.05-.1,7.51.95,10.27,3.78,1.58,1.62,1.31,3.82-.06,5.48-1.39,1.68-3.55,1.67-5.29.24-2.4-1.98-5.54-2.18-8.21-.88-1.3.63-1.88,1.9-1.78,3.31.12,1.79,1.22,3.02,2.86,3.54,1.27.4,2.67.38,4,.61,5.02.87,8.56,3.53,9.93,8.56,1.1,4.04.03,7.57-2.65,10.81-4.03,4.87-12.91,5.39-17.92,2.17-1.6-1.03-3.36-2.1-3.35-4.45.02-2.04.62-3.17,2.38-3.84,1.6-.61,3.19-.44,4.39.86,1.73,1.86,5.9,1.66,7.43.81,1.41-.79,2.44-2.75,2.13-3.97-.49-1.94-2.14-3.16-4.3-3.22-3.13-.08-5.94-1.04-8.47-2.92-3.36-2.49-5.24-8.07-3.97-12.39,1.47-4.99,6.76-8.94,12.61-8.5Z"/>
  <path d="m47.81,45.22c0,3.32.12,6.64-.03,9.95-.15,3.13-.45,6.24-2.03,9.13-1.76,3.21-4.4,5-7.89,5.68-.93.18-1.89.19-2.83.29-2.93.31-4.52-2.17-4.61-4.07-.11-2.19,1.8-3.85,4.43-3.96,3.19-.12,4.53-1.31,4.68-4.46.18-3.8.24-7.61.29-11.41.05-4.15.01-8.29.04-12.44.01-1.81,1.46-3.08,3.24-3.27,3.42-.36,4.77,2.09,4.74,4.74-.05,3.27-.01,6.54-.01,9.81Z"/>
</svg>