<?xml version="1.0" encoding="utf-8"?>
<!-- Generator: Adobe Illustrator 27.6.1, SVG Export Plug-In . SVG Version: 6.00 Build 0)  -->
<svg version="1.1" id="레이어_1" xmlns="http://www.w3.org/2000/svg" xmlns:xlink="http://www.w3.org/1999/xlink" x="0px"
	 y="0px" viewBox="0 0 2834.65 2834.65" style="enable-background:new 0 0 2834.65 2834.65;" xml:space="preserve">
<style type="text/css">
	.st0{fill:none;stroke:#000000;stroke-width:50;stroke-linecap:round;stroke-linejoin:round;stroke-miterlimit:10;}
	.st1{stroke:#000000;stroke-width:50;stroke-linecap:round;stroke-linejoin:round;stroke-miterlimit:10;}
	.st2{fill:none;stroke:#000000;stroke-width:30;stroke-miterlimit:10;}
</style>
<path class="st0" d="M984.64,1118.9c-16.63-4.35-33.52-8-51.06-12.05c-45.99-10.64-92.08-29.81-136.22-46.39
	c-124.56-46.78-248.4-104.26-353.66-186.7c-49.76-38.97-95.53-84.17-128.23-138.26c-59.96-99.17-74.12-248.65,29.32-325.27
	c62.07-45.97,144.58-59.91,220.09-61.51c133.18-2.82,254.38,54.14,367.43,118.73c89.71,51.26,174.18,112.75,247.25,185.99
	c34.69,34.77,66.62,72.32,94.9,112.33"/>
<path class="st0" d="M928,1176c18.23-20.63,36.78-39.35,56.64-57.1"/>
<path class="st0" d="M1274.46,765.78c46.33-50.26,101.3-94.46,160.37-126.57c74.27-40.37,160.38-61.82,244.2-50.83
	c215.75,28.29,309.52,248.1,351.09,436c4.48,20.25,8.49,40.61,12.12,61.03c2.79,15.71,1.88,42.09,11.85,54.63
	c22.61,28.44,57.72,42.7,86.38,63.89c51.3,37.93,92.01,86.24,128.29,138.32c131.26,188.4,162.67,492.62,1,674.93
	c-96.03,108.3-217.83,182.34-357.17,221.76c-135.97,38.48-278.96,45.32-420.23,41.95c-272.57-6.51-600.69-44.33-752.15-302.55
	c-5.36-9.13-10.44-18.42-15.24-27.86c-24.26-47.71-40.67-99.56-46.24-152.88c-8.49-81.33,9.3-163.48,37.06-240.4
	c4.92-13.64,10.01-27.26,15.27-40.84"/>
<path class="st0" d="M1751,887c-37.57,197.92-174.04,391.91-394.67,385.66c-35.66-1.01-72.12-10.4-99.86-32.83
	c-56.73-45.86-85.57-137.1-89.52-207.35c-4.49-79.91,21.33-159.12,70.09-222.36c11.7-15.18,24.21-30,37.42-44.34l14.14-14.87"/>
<path class="st0" d="M734.18,1517.57c21.29,52.31,86.55,74.25,138.83,63.49c24.52-5.04,46.93-17.04,66.33-32.64
	c6.96-5.59,55.49-56.95,65.37-75.34c1.42-2.65,4.81-3.51,7.27-1.79c57.62,40.22,140.27,49.88,197.82,4.75
	c26.17-20.53,43.79-53.31,41.29-86.48c-2.01-26.72-16.44-49.74-35.28-67.99c-4.1-3.97-34.2-25.88-49.68-35.8
	c-4.68-3-6.37-9.03-3.95-14.03c12.64-26.08,17.99-65.75,18.34-91.58c0.38-28.58-8.63-58.63-30.21-77.37
	c-13.56-11.77-31.08-18.27-48.83-20.97c-72.62-11.07-125.78,39.03-158.06,97.8c-1.85,3.37-6.2,4.41-9.4,2.27
	c-18.43-12.3-80.46-34.13-85.71-35.23c-62.82-13.18-155.92,13.2-163.37,87.16c-3.62,35.91,8.48,73.43,33.34,99.75
	c14.27,15.11,33.9,23.44,46.14,40.83c0.63,0.9,1.27,1.91,1.19,3c-0.01,0.15-0.04,0.3-0.07,0.45c-0.2,0.81-0.76,1.52-1.29,2.18
	c-14.16,17.75-22.77,38.47-29.89,59.84C726,1464.98,724.03,1492.61,734.18,1517.57"/>
<circle class="st0" cx="958" cy="1332" r="69"/>
<path class="st0" d="M2083.12,2030.49c-32.96,218.39-443.04,287.74-774.12,231.51c-336.94-57.23-471.9-132.82-470.84-315.31
	c1.18-203.51,283.53-340.45,633.1-320.4C1820.83,1646.34,2113.49,1829.26,2083.12,2030.49z"/>
<ellipse class="st1" cx="1843.5" cy="1923.5" rx="70.5" ry="103.5"/>
<ellipse transform="matrix(0.1792 -0.9838 0.9838 0.1792 -973.3727 2588.3035)" class="st1" cx="1064.5" cy="1877.5" rx="103.5" ry="70.5"/>
<ellipse class="st2" cx="1414.5" cy="2017" rx="63" ry="48.5"/>
<path class="st0" d="M1331.5,2106c0,0,88.84,93.91,182.5,5.22"/>
</svg>
