<?xml version="1.0" encoding="UTF-8"?>
<svg id="_레이어_1" data-name="레이어 1" xmlns="http://www.w3.org/2000/svg" viewBox="0 0 85.04 85.04">
  <path d="m81.72,45.63c-.05,2.55-.52,6.29-1.52,9.94-.38,1.39-.24,2.28.91,3.2,1.59,1.28,2.91,2.82,3.51,4.86.94,3.17.27,6-2,8.34-3.41,3.5-6.9,6.91-10.4,10.32-3.71,3.61-9.13,3.76-12.6-.07-2.39-2.65-4.54-3.36-8.15-2.44-6.58,1.66-13.31,1.26-19.63-1.54-8.45-3.74-13.84-10.36-16.98-18.9-2.14-5.82-2.69-12.01-4.16-17.99C8.36,31.75,4.62,22.64.78,13.58-.48,10.6-.3,9.38,1.95,7.12c1.86-1.86,3.74-3.71,5.6-5.58C9.16-.07,10.95-.41,13.1.48c9.09,3.75,18.21,7.42,27.77,9.84,5.5,1.39,11.18,1.95,16.64,3.52,9.72,2.79,17.41,8.15,21.7,17.62,1.72,3.8,2.53,8.43,2.52,14.18ZM19.25,12.42c.31.54.36.7.46.8,5.96,5.91,11.93,11.82,17.87,17.74.51.51.94.57,1.59.3,1.37-.57,2.81-.9,4.3-.94,7.52-.21,13.65,5.7,13.67,13.16.01,7.18-5.97,12.92-13.4,12.86-9.04-.08-15.29-9.04-12.11-17.44.36-.96.15-1.47-.5-2.11-4.86-4.77-9.67-9.58-14.54-14.32-1.22-1.18-2.31-2.54-4.02-3.58.2.61.29.97.43,1.32,1.85,4.84,3.61,9.72,5.14,14.68,1.94,6.31,2.5,12.92,4.31,19.26,2.28,7.97,6.7,14.21,14.91,16.8,5.94,1.88,11.9,1.03,17.68-1.1,2.11-.78,3.94-.54,5.55,1.12,1.38,1.42,2.92,2.68,4.2,4.18.93,1.09,1.54.79,2.34-.01,2.75-2.76,5.5-5.52,8.31-8.22.74-.71.57-1.1-.07-1.69-1.25-1.15-2.49-2.32-3.66-3.55-1.24-1.32-1.77-2.85-1.1-4.67,1.73-4.67,2.47-9.51,2.22-14.47-.21-4.11-1.23-8-3.78-11.35-4.36-5.72-10.43-8.49-17.29-9.81-7.77-1.5-15.56-2.87-23.03-5.59-3.01-1.1-6.04-2.15-9.48-3.37Zm24.76,26.68c-2.54-.03-4.43,1.78-4.44,4.26-.01,2.34,2.07,4.4,4.42,4.37,2.41-.03,4.4-2.05,4.38-4.43-.02-2.36-1.9-4.17-4.36-4.2Z"/>
</svg>