<?xml version="1.0" encoding="utf-8"?>
<!-- Generator: Adobe Illustrator 27.6.1, SVG Export Plug-In . SVG Version: 6.00 Build 0)  -->
<svg version="1.1" id="_레이어_1" xmlns="http://www.w3.org/2000/svg" xmlns:xlink="http://www.w3.org/1999/xlink" x="0px"
	 y="0px" viewBox="0 0 86.4 86.4" style="enable-background:new 0 0 86.4 86.4;" xml:space="preserve">
<style type="text/css">
	.st0{fill:none;stroke:#000000;stroke-width:7;stroke-linecap:round;stroke-linejoin:round;}
	.st1{fill:none;stroke:#000000;stroke-width:8;stroke-linecap:round;stroke-linejoin:round;}
</style>
<path class="st0" d="M82.9,40.7v24.4c0,9.8-8,17.8-17.8,17.8H21.3c-9.8,0-17.8-8-17.8-17.8V21.3c0-9.8,8-17.8,17.8-17.8h43.8
	c9.8,0,17.8,8,17.8,17.8v4"/>
<g>
	<path class="st1" d="M31.7,28.3c0.5-4.1,1.1-6.2,4.1-8.2c3.4-2.2,6.8-2.7,10.8-1.3c6.1,2.1,7.7,5.3,8.1,10.3c0.2,2.3,0.1,4.7-1,6.8
		c-1.8,3.4-5.4,4.9-9.1,5l-0.1,17.3"/>
	<circle class="st1" cx="44.6" cy="67.3" r="1"/>
</g>
</svg>
