<?xml version="1.0" encoding="UTF-8"?>
<svg id="_레이어_1" data-name="레이어 1" xmlns="http://www.w3.org/2000/svg" viewBox="0 0 85.04 77.03">
  <defs>
    <style>
      .cls-1 {
        fill: #222;
      }
    </style>
  </defs>
  <path class="cls-1" d="m.13,39.73c-.03-.18-.05-.36-.08-.54.3-.46.77-.88.86-1.38.38-2.26,1.33-4.27,2.79-5.95,4.05-4.66,9.39-7.24,15.18-9,1.61-.49,3.31.27,3.9,1.59.85,1.9.07,3.75-1.97,4.41-3.67,1.19-7.23,2.63-10.24,5.09-3.74,3.05-5.01,6.44-.82,10.31,2.43,2.25,5.27,3.72,8.29,4.91,7.67,3.01,15.72,3.89,23.86,4.14,2.44.08,4.89-.17,7.34-.23.68-.02,1.39.27,2.04.16,1.7-.26,3.36-.83,5.06-.97,2.05-.17,3.09.77,3.29,2.54.2,1.79-.8,2.95-2.55,3.59-1.63.6-3.41-.41-4.94.68-.11.08-.42-.2-.63-.19-.45.02-.91.09-1.36.2-.39.09-.76.35-1.15.36-3.41.03-6.83.23-10.21-.03-4.54-.35-9.09-.86-13.57-1.67-6.69-1.22-13.04-3.47-18.46-7.77-3.01-2.38-5.31-5.27-5.86-9.25-.05-.36-.5-.67-.76-1.01Z"/>
  <path class="cls-1" d="m.13,39.73c.26.33.71.64.76,1.01.56,3.98,2.86,6.87,5.86,9.25,5.42,4.29,11.77,6.54,18.46,7.77,4.48.82,9.03,1.32,13.57,1.67,3.39.26,6.81.06,10.21.03.38,0,.76-.27,1.15-.36.44-.1.9-.18,1.36-.2.21,0,.53.27.63.19,1.53-1.08,3.32-.08,4.94-.68,1.75-.64,2.75-1.8,2.55-3.59-.19-1.76-1.24-2.71-3.29-2.54-1.7.14-3.36.71-5.06.97-.66.1-1.36-.18-2.04-.16-2.45.06-4.9.31-7.34.23-8.14-.25-16.2-1.13-23.86-4.14-3.02-1.19-5.86-2.66-8.29-4.91-4.18-3.86-2.92-7.26.82-10.31,3.01-2.46,6.57-3.91,10.24-5.09,2.03-.66,2.82-2.51,1.97-4.41-.59-1.32-2.29-2.08-3.9-1.59-5.79,1.76-11.13,4.34-15.18,9-1.46,1.68-2.41,3.7-2.79,5.95-.08.49-.56.92-.86,1.38-.28-2.18.51-4.11,1.61-5.86,2.75-4.38,6.92-7.09,11.52-9.15,1.9-.86,3.91-1.51,5.9-2.15,1.74-.55,4.26.86,4.6,2.6.43,2.26-.42,4.33-2.73,5.11-4.05,1.37-8.04,2.93-11.16,6.01-2.44,2.41-2.57,4.79-.05,7.42,3.34,3.49,7.61,5.28,12.09,6.51,3.76,1.03,7.63,1.76,11.5,2.23,3.82.46,7.7.64,11.54.56,3.53-.08,7.06-.59,10.57-1.07,2.39-.32,4.71,1.01,4.99,3.21.25,1.92-.86,4.55-4.04,4.84-5.28.49-10.57,1.01-15.86,1.07-3.66.04-7.33-.59-10.99-1.05-2.57-.32-5.12-.84-7.25-1.21.27,1.47.61,3.11.86,4.76.29,1.86.65,3.7,2.23,4.92.64.49,1.5.91,2.28.95,2.05.09,4.01-.52,5.79-1.52,1.92-1.07,4.51-.66,5.54,1.02,1.06,1.71.94,4.54-1.26,5.76-3.09,1.71-6.39,2.91-10.01,2.85-4.68-.08-8.08-2.41-10.38-6.33-1.85-3.16-2.45-6.69-2.26-10.33.08-1.49.97-2.45,2.28-3.07.23-.11.45-.22.76-.38-4.39-1.5-8.41-3.37-11.99-6.18-2.85-2.23-4.92-4.94-5.87-8.44-.22-.8-.12-1.69-.17-2.54Zm28.01,36.43c2.61,0,7.37-1.46,9.44-2.9,1.38-.96,1.84-2.57,1.12-3.88-.93-1.68-2.55-2.25-4.23-1.51-1.1.48-2.18,1.04-3.32,1.37-3.22.92-6.4,1.23-8.05-3.59-.54-1.58-.55-3.34-.88-5-.38-1.9-1.75-2.97-3.51-2.83-1.59.13-2.76,1.55-2.74,3.44.03,2.65.54,5.2,1.59,7.67,1.8,4.25,6.03,7.23,10.59,7.25Z"/>
  <path class="cls-1" d="m75.39,43.47c.41-.74.81-1.49,1.25-2.21.7-1.15.59-2.25.01-3.43-.81-1.65-2.11-2.77-3.57-3.79-1.55-1.07-3.05-2.16-2.89-4.43.14-1.97,1.61-3.38,3.55-3.56,2.06-.2,3.48.89,4.88,2.02,2.85,2.31,5.3,4.9,6.11,8.71.82,3.85.08,7.32-2.35,10.31-1.42,1.75-3.19,3.23-4.93,4.69-2.21,1.86-5.28,2.01-6.81-.59-.03-.05-.17-.02-.07-.01.25,3.35.75,6.73.69,10.11-.07,3.57-.71,7.12-2.87,10.18-3.36,4.74-8.29,6.45-13.71,5.15-4.59-1.1-8.53-3.44-12.07-6.5-1.19-1.03-2.41-2.04-3.45-3.2-1.01-1.13-.87-2.54-.22-3.8.66-1.27,1.76-1.85,3.27-2.01,2.28-.25,3.5,1.3,4.94,2.47,2.7,2.21,5.5,4.15,8.92,5.12,3.17.9,5.31-.12,6.35-3.23.95-2.82.91-5.66.61-8.6-.45-4.38-1.63-8.54-3.1-12.65-1.91-5.33-4.38-10.4-7.5-15.13-1.86-2.82-3.93-5.49-5.95-8.2-1.2-1.63-.97-4.2.55-5.41,1.6-1.27,4.75-.95,5.92.53,4.76,6.01,8.91,12.42,11.98,19.45,1.91,4.36,3.47,8.88,5.11,13.13.65-2.51,3.29-3.47,5.31-5.08.05.22.09.44.14.66-1.05.83-2.11,1.64-3.15,2.48-1.75,1.41-1.82,3.3-.2,5.03.09.08.18.17.28.25,1.35.81,2.62.58,3.84-.31.92-.68,1.91-1.28,2.77-2.03,2.99-2.62,5.17-5.71,5.34-9.87,0-.19,0-.37,0-.56-.1-3.9-2.11-6.77-4.96-9.19-1.12-.84-2.23-1.68-3.35-2.52-1.84-1.17-3.02-1.03-4.22.5-1.2,1.52-1.03,3.01.58,4.36.81.68,1.79,1.17,2.55,1.9.91.86,1.88,1.77,2.44,2.86,1.28,2.46.45,4.64-1.36,6.54-.22-.05-.44-.09-.66-.14Zm-34.39,18.77c-.28.19-.55.38-.83.57-1.12,1.72-1.16,2.91.1,4.1,4.9,4.67,10.3,8.39,17.31,9.01,3.1.27,5.82-.59,8.16-2.64,3.43-3.01,4.43-7.08,4.72-11.34.37-5.55-.73-10.93-2.35-16.22-2.2-7.16-5.32-13.91-9.36-20.2-2.04-3.18-4.42-6.14-6.75-9.12-.76-.97-1.91-1.47-3.24-.99-2.28.82-2.88,3.38-1.27,5.33.91,1.1,1.83,2.19,2.67,3.35,5.17,7.18,9.26,14.91,11.85,23.39,1.61,5.28,2.75,10.65,1.8,16.21-.37,2.17-.87,4.34-3.2,5.47-2.08,1.01-4.06.58-6.04-.16-3.61-1.34-6.65-3.59-9.47-6.15-1.42-1.29-2.65-1.51-4.1-.62Z"/>
  <path class="cls-1" d="m50.18,38.78c.3,3.68-3.32,7.43-7.3,7.36-3.5-.06-7.18-3.42-7.11-7.35.07-3.76,2.65-7.34,7.61-7.16,3.46.12,7.1,3.15,6.8,7.16Z"/>
  <path class="cls-1" d="m71.57,17.53c-.42,2.79-.8,5.99-1.4,9.15-.34,1.8-2.19,3.24-4.42,3.03-1.79-.17-3.43-1.98-3.31-3.84.11-1.7.56-3.39.67-5.09.21-3.14.55-6.34-.54-9.38-1.14-3.18-3.38-4.03-6.88-2.94-3.33,1.04-6.14,2.95-8.77,5.16-6.68,5.63-11.82,12.52-15.9,20.18-1.8,3.38-3.24,6.96-4.79,10.47-.75,1.7-3.15,2.93-4.89,2.37-1.86-.61-3.23-3.21-2.61-5.05,1.83-5.42,4.44-10.44,7.42-15.31,3.69-6.04,7.8-11.73,13.02-16.53,4.02-3.7,8.35-7,13.66-8.74,4.52-1.48,8.82-1.36,12.84,1.44,2.89,2.02,4.27,5,5.03,8.26.49,2.07.55,4.24.85,6.83Zm-.91.13c-.19-2.34-.22-4.01-.48-5.65-.51-3.22-1.68-6.2-4.24-8.36-2.98-2.52-6.38-3.51-10.3-2.45-2.76.75-5.5,1.46-7.95,3.01-6.81,4.33-12.18,10.11-16.88,16.58-4.37,6.01-7.95,12.45-10.61,19.39-.35.92-.69,1.91-.71,2.87-.03,1.23,1.41,2.62,2.55,2.78,1.43.2,2.84-.63,3.43-2,.99-2.29,1.91-4.61,3.01-6.85,4.24-8.67,9.61-16.53,16.79-23.06,2.92-2.66,6.13-4.92,9.89-6.29,3.06-1.12,5.91-.54,7.42,1.59,1.24,1.75,1.78,3.83,1.73,5.89-.09,3.22-.46,6.43-.86,9.63-.26,2.04.64,3.69,2.54,4.07,1.49.3,3.35-1.04,3.61-2.75.45-3,.78-6.02,1.08-8.39Z"/>
  <path class="cls-1" d="m14.88,14.62c.34-3.62,1.09-7.91,4.43-11.2C21.55,1.2,24.39.05,27.46,0c3.78-.06,7.35,1.17,10.62,3.07,1.41.82,2.11,3.22,1.08,4.99-1.04,1.79-3.21,2.64-4.99,1.94-1.61-.64-3.25-1.19-4.9-1.72-3.29-1.07-5.26,1.17-5.78,3.65-.31,1.45-.28,2.98-.62,4.43-.57,2.5-2.37,3.78-4.37,3.59-1.98-.19-3.79-1.63-3.63-5.32Zm1.02.8c.07.4.04,1.18.33,1.83.6,1.35,2.12,1.94,3.63,1.56,1.16-.29,2.19-1.6,2.22-2.88.05-2.21.44-4.33,1.54-6.26.9-1.58,2.19-2.5,4.15-2.54,2.37-.05,4.41.83,6.48,1.79,1.68.79,3.56.18,4.29-1.29.82-1.65.24-3.52-1.6-4.27-2.16-.89-4.4-1.61-6.65-2.23-3.38-.93-6.55-.25-9.23,1.96-3.73,3.08-4.9,7.35-5.15,12.32Z"/>
  <path class="cls-1" d="m28.14,76.16c-4.56-.02-8.79-2.99-10.59-7.25-1.05-2.48-1.55-5.02-1.59-7.67-.02-1.88,1.16-3.31,2.74-3.44,1.76-.14,3.13.93,3.51,2.83.33,1.66.34,3.42.88,5,1.65,4.82,4.83,4.52,8.05,3.59,1.14-.33,2.22-.88,3.32-1.37,1.68-.74,3.3-.17,4.23,1.51.72,1.31.26,2.92-1.12,3.88-2.07,1.45-6.84,2.91-9.44,2.9Z"/>
  <path class="cls-1" d="m40.99,62.24c1.45-.89,2.68-.67,4.1.62,2.82,2.57,5.86,4.81,9.47,6.15,1.98.73,3.96,1.16,6.04.16,2.33-1.13,2.83-3.3,3.2-5.47.95-5.56-.19-10.93-1.8-16.21-2.59-8.48-6.68-16.21-11.85-23.39-.83-1.16-1.76-2.25-2.67-3.35-1.61-1.95-1.01-4.51,1.27-5.33,1.32-.48,2.48.02,3.24.99,2.33,2.98,4.71,5.94,6.75,9.12,4.04,6.29,7.16,13.04,9.36,20.2,1.63,5.29,2.73,10.67,2.35,16.22-.29,4.26-1.29,8.33-4.72,11.34-2.34,2.05-5.06,2.92-8.16,2.64-7.01-.62-12.41-4.35-17.31-9.01-1.26-1.2-1.22-2.38-.1-4.1.28-.19.55-.38.83-.57Z"/>
  <path class="cls-1" d="m84.38,39.72c-.18,4.16-2.35,7.25-5.34,9.87-.86.75-1.85,1.36-2.77,2.03-1.22.89-2.48,1.12-3.84.31-.09-.08-.18-.17-.28-.25-1.63-1.74-1.56-3.62.2-5.03,1.04-.84,2.1-1.65,3.15-2.48.19-.19.37-.37.56-.56,1.81-1.9,2.65-4.08,1.36-6.54-.57-1.09-1.54-2-2.44-2.86-.76-.72-1.74-1.21-2.55-1.9-1.6-1.35-1.77-2.85-.58-4.36,1.2-1.53,2.39-1.67,4.22-.5.69,1.41,1.72,2.36,3.35,2.52,2.85,2.42,4.86,5.29,4.96,9.19-.13.09-.27.19-.4.28.13.09.27.19.4.28Z"/>
  <path class="cls-1" d="m79.41,29.97c-1.63-.16-2.66-1.11-3.35-2.52,1.12.84,2.23,1.68,3.35,2.52Z"/>
  <path class="cls-1" d="m40.99,62.24c-.28.19-.55.38-.83.57.28-.19.55-.38.83-.57Z"/>
  <path class="cls-1" d="m84.38,39.72c-.13-.09-.27-.19-.4-.28.13-.09.27-.19.4-.28,0,.19,0,.37,0,.56Z"/>
  <path class="cls-1" d="m76.05,43.61c-.19.19-.37.37-.56.56-.04-.22-.09-.44-.14-.66,0,0,.03-.03.03-.03.22.05.44.09.66.14Z"/>
  <path class="cls-1" d="m72.15,51.68c.09.08.18.17.28.25-.09-.08-.18-.17-.28-.25Z"/>
  <path class="cls-1" d="m70.66,17.65c-.3,2.37-.63,5.39-1.08,8.39-.25,1.72-2.12,3.06-3.61,2.75-1.9-.39-2.8-2.04-2.54-4.07.41-3.2.78-6.41.86-9.63.05-2.06-.49-4.14-1.73-5.89-1.51-2.13-4.35-2.71-7.42-1.59-3.76,1.37-6.96,3.63-9.89,6.29-7.18,6.53-12.55,14.39-16.79,23.06-1.1,2.24-2.02,4.56-3.01,6.85-.59,1.37-2,2.2-3.43,2-1.14-.16-2.58-1.55-2.55-2.78.02-.96.36-1.95.71-2.87,2.66-6.94,6.24-13.38,10.61-19.39,4.71-6.47,10.08-12.25,16.88-16.58,2.45-1.56,5.19-2.26,7.95-3.01,3.92-1.07,7.32-.07,10.3,2.45,2.56,2.16,3.72,5.14,4.24,8.36.26,1.63.29,3.3.48,5.65Z"/>
  <path class="cls-1" d="m15.9,15.42c.25-4.97,1.42-9.24,5.15-12.32,2.68-2.21,5.85-2.9,9.23-1.96,2.25.62,4.49,1.35,6.65,2.23,1.84.75,2.42,2.62,1.6,4.27-.73,1.47-2.61,2.08-4.29,1.29-2.06-.97-4.1-1.85-6.48-1.79-1.95.04-3.24.96-4.15,2.54-1.1,1.93-1.5,4.05-1.54,6.26-.03,1.28-1.06,2.58-2.22,2.88-1.51.38-3.03-.2-3.63-1.56-.28-.65-.26-1.43-.33-1.83Z"/>
</svg>