<?xml version="1.0" encoding="UTF-8"?>
<svg id="_레이어_1" data-name="레이어 1" xmlns="http://www.w3.org/2000/svg" viewBox="0 0 199.39 186.66">
  <defs>
    <style>
      .cls-1 {
        fill: #ffce32;
      }
    </style>
  </defs>
  <path class="cls-1" d="m94.53,0c11.22,0,20.24,2.14,29.04,5.41,10.94,4.07,21.12,9.6,30.74,16.17,6.36,4.34,12.34,9.16,18.04,14.35,6.83,6.22,12.95,13.04,18.13,20.68,3.68,5.43,6.63,11.23,8.15,17.66,2.64,11.18-1.64,20.3-12.18,25.4-4.85,2.35-9.95,4.16-14.86,6.39-9.87,4.48-19.28,9.74-27.89,16.38-11.84,9.12-21.11,20.39-28.28,33.45-3.43,6.26-6.78,12.57-10.49,18.66-3.56,5.84-8.66,9.91-15.53,11.31-3.85.79-7.71.99-11.68.6-3.7-.37-7.15-1.47-10.68-2.44-8.52-2.32-16.7-5.52-24.45-9.73-16.9-9.17-29.89-23.46-36.04-41.82C-.48,111.47-1.47,87.3,1.77,65.51c2.39-16.12,10.38-29.55,22.46-40.31,8.49-7.56,18.25-13.11,28.88-17.21,9.71-3.74,19.73-6.11,30.04-7.25C87.51.27,91.91.16,94.53,0Z"/>
</svg>